<svg width="27" height="30" viewBox="0 0 27 30" fill="none" xmlns="http://www.w3.org/2000/svg">
<path d="M25.5 12.1667H1.5M25.5 15.5V10.5667C25.5 8.32646 25.5 7.20635 25.064 6.3507C24.6805 5.59806 24.0686 4.98613 23.316 4.60264C22.4603 4.16667 21.3402 4.16667 19.1 4.16667H7.9C5.65979 4.16667 4.53969 4.16667 3.68404 4.60264C2.93139 4.98613 2.31947 5.59806 1.93597 6.3507C1.5 7.20635 1.5 8.32646 1.5 10.5667V21.7667C1.5 24.0069 1.5 25.127 1.93597 25.9826C2.31947 26.7353 2.93139 27.3472 3.68404 27.7307C4.53969 28.1667 5.65979 28.1667 7.9 28.1667H13.5M18.8333 1.5V6.83333M8.16667 1.5V6.83333M16.8333 24.1667L19.5 26.8333L25.5 20.8333" stroke="#B6F09C" stroke-width="3" stroke-linecap="round" stroke-linejoin="round"/>
</svg>
