<svg width="31" height="27" viewBox="0 0 31 27" fill="none" xmlns="http://www.w3.org/2000/svg">
<path d="M15.1846 10.1722V15.5055M15.1846 20.8388H15.1979M13.3383 3.36115L2.37181 22.3033C1.76354 23.354 1.4594 23.8793 1.50435 24.3104C1.54356 24.6865 1.74059 25.0282 2.0464 25.2506C2.39701 25.5055 3.00402 25.5055 4.21806 25.5055H26.1511C27.3651 25.5055 27.9721 25.5055 28.3227 25.2506C28.6286 25.0282 28.8256 24.6865 28.8648 24.3104C28.9097 23.8793 28.6056 23.354 27.9973 22.3033L17.0308 3.36114C16.4247 2.31426 16.1217 1.79082 15.7263 1.61501C15.3814 1.46166 14.9877 1.46166 14.6428 1.61501C14.2475 1.79082 13.9444 2.31426 13.3383 3.36115Z" stroke="#E64064" stroke-width="3" stroke-linecap="round" stroke-linejoin="round"/>
</svg>
